<?xml version="1.0" encoding="UTF-8" standalone="no" ?>
<!DOCTYPE svg PUBLIC "-//W3C//DTD SVG 1.1//EN" "http://www.w3.org/Graphics/SVG/1.1/DTD/svg11.dtd">
<svg xmlns="http://www.w3.org/2000/svg" xmlns:xlink="http://www.w3.org/1999/xlink" version="1.1" width="1280" height="1024" viewBox="0 0 1280 1024" xml:space="preserve">
<desc>Created with Fabric.js 3.6.3</desc>
<defs>
</defs>
<g transform="matrix(1.9662058371735787 0 0 1.9662058371735787 640.2456813819576 512.1966205837173)" id="background-logo"  >
<rect style="stroke: none; stroke-width: 1; stroke-dasharray: none; stroke-linecap: butt; stroke-dashoffset: 0; stroke-linejoin: miter; stroke-miterlimit: 4; fill: rgb(255,255,255); fill-opacity: 0; fill-rule: nonzero; opacity: 1;"  paint-order="stroke"  x="-325" y="-260" rx="0" ry="0" width="650" height="520" />
</g>
<g transform="matrix(1.9699870022450665 0 0 1.9699870022450665 701.9162687867451 519.1590668462719)" id="text-logo-path"  >
<path style="stroke: none; stroke-width: 0; stroke-dasharray: none; stroke-linecap: butt; stroke-dashoffset: 0; stroke-linejoin: miter; stroke-miterlimit: 4; fill: rgb(124,29,220); fill-rule: nonzero; opacity: 1;"  paint-order="stroke"  transform=" translate(-165.65999999999997, 15.400000000000002)" d="M 11.73 0 L 4.23 0 L 4.23 -30.8 Q 4.23 -33.68 5.29 -35.69 Q 6.34 -37.71 7.91 -38.95 Q 9.48 -40.19 11.32 -40.75 Q 13.17 -41.31 14.72 -41.31 L 14.72 -41.31 L 31.66 -41.31 Q 34.2 -41.31 36.21 -40.66 Q 38.23 -40.02 39.77 -38.93 Q 41.31 -37.85 42.39 -36.44 Q 43.47 -35.03 44.18 -33.49 Q 44.88 -31.95 45.2 -30.38 Q 45.52 -28.81 45.52 -27.43 L 45.52 -27.43 L 45.52 -24.03 Q 45.52 -21.46 44.88 -19.45 Q 44.25 -17.43 43.17 -15.89 Q 42.09 -14.35 40.68 -13.25 Q 39.27 -12.16 37.72 -11.47 Q 36.18 -10.77 34.61 -10.46 Q 33.04 -10.14 31.66 -10.14 L 31.66 -10.14 L 14.72 -10.14 L 14.72 -17.63 L 31.66 -17.63 Q 33.1 -17.75 34.27 -18.22 Q 35.43 -18.7 36.27 -19.5 Q 37.11 -20.31 37.57 -21.45 Q 38.03 -22.59 38.03 -24.03 L 38.03 -24.03 L 38.03 -27.43 Q 37.88 -28.84 37.42 -30.02 Q 36.96 -31.2 36.17 -32.04 Q 35.38 -32.87 34.25 -33.35 Q 33.13 -33.82 31.66 -33.82 L 31.66 -33.82 L 14.78 -33.82 Q 13.28 -33.82 12.5 -33.04 Q 11.73 -32.27 11.73 -30.8 L 11.73 -30.8 L 11.73 0 Z M 50.44 -10.52 L 50.44 -10.52 L 50.44 -20.66 Q 50.44 -23.54 51.5 -25.54 Q 52.55 -27.54 54.12 -28.79 Q 55.69 -30.05 57.53 -30.59 Q 59.37 -31.14 60.93 -31.14 L 60.93 -31.14 L 74.44 -31.14 Q 77.32 -31.14 79.34 -30.1 Q 81.36 -29.07 82.59 -27.5 Q 83.83 -25.93 84.39 -24.08 Q 84.96 -22.24 84.96 -20.66 L 84.96 -20.66 L 84.96 -10.52 Q 84.96 -8.58 84.47 -7.04 Q 83.98 -5.5 83.17 -4.34 Q 82.36 -3.17 81.3 -2.35 Q 80.23 -1.53 79.07 -1.01 Q 77.9 -0.49 76.7 -0.24 Q 75.51 0 74.44 0 L 74.44 0 L 60.93 0 Q 59.37 0 57.53 -0.55 Q 55.69 -1.09 54.12 -2.35 Q 52.55 -3.6 51.5 -5.6 Q 50.44 -7.61 50.44 -10.52 Z M 57.93 -20.66 L 57.93 -10.52 Q 57.93 -9.05 58.71 -8.27 Q 59.49 -7.49 60.99 -7.49 L 60.99 -7.49 L 74.44 -7.49 Q 75.97 -7.49 76.72 -8.27 Q 77.47 -9.05 77.47 -10.52 L 77.47 -10.52 L 77.47 -20.6 Q 77.47 -22.15 76.69 -22.9 Q 75.91 -23.65 74.44 -23.65 L 74.44 -23.65 L 60.99 -23.65 Q 59.49 -23.65 58.71 -22.89 Q 57.93 -22.13 57.93 -20.66 L 57.93 -20.66 Z M 91.15 -10.52 L 91.15 -10.52 L 91.15 -44.31 L 98.64 -44.31 L 98.64 -10.52 Q 98.64 -9.13 99.5 -8.31 Q 100.37 -7.49 101.67 -7.49 L 101.67 -7.49 L 105.01 -7.49 L 105.01 0 L 101.67 0 Q 100.05 0 98.22 -0.55 Q 96.39 -1.09 94.81 -2.35 Q 93.22 -3.6 92.19 -5.6 Q 91.15 -7.61 91.15 -10.52 Z M 117.42 0 L 109.93 0 L 109.93 -44.31 L 117.42 -44.31 L 117.42 0 Z M 119.33 -17.46 L 119.33 -17.46 Q 119.38 -18.26 119.74 -18.97 Q 120.1 -19.68 120.74 -20.17 L 120.74 -20.17 L 134.42 -31.2 L 146.41 -31.2 L 128.77 -17 L 146.41 0 L 135.6 0 L 120.51 -14.58 Q 119.33 -15.64 119.33 -17.23 L 119.33 -17.23 Q 119.33 -17.34 119.33 -17.46 Z M 147.62 -10.31 L 147.62 -10.31 Q 147.62 -11.87 148.16 -13.68 Q 148.71 -15.5 149.93 -17.04 Q 151.16 -18.58 153.13 -19.62 Q 155.11 -20.66 157.93 -20.66 L 157.93 -20.66 L 171.44 -20.66 L 171.44 -13.51 L 157.93 -13.51 Q 156.4 -13.51 155.57 -12.57 Q 154.73 -11.64 154.73 -10.26 L 154.73 -10.26 Q 154.73 -8.79 155.7 -7.97 Q 156.66 -7.14 157.99 -7.14 L 157.99 -7.14 L 171.44 -7.14 Q 172.97 -7.14 173.8 -8.07 Q 174.64 -8.99 174.64 -10.37 L 174.64 -10.37 L 174.64 -20.83 Q 174.64 -22.3 173.73 -23.16 Q 172.82 -24.03 171.44 -24.03 L 171.44 -24.03 L 154.99 -24.03 L 154.99 -31.14 L 171.44 -31.14 Q 173 -31.14 174.8 -30.59 Q 176.6 -30.05 178.14 -28.82 Q 179.68 -27.6 180.72 -25.63 Q 181.75 -23.65 181.75 -20.83 L 181.75 -20.83 L 181.75 -10.31 Q 181.75 -8.76 181.21 -6.96 Q 180.66 -5.16 179.43 -3.62 Q 178.21 -2.07 176.24 -1.04 Q 174.26 0 171.44 0 L 171.44 0 L 157.93 0 Q 156.37 0 154.57 -0.55 Q 152.77 -1.09 151.23 -2.32 Q 149.69 -3.54 148.65 -5.52 Q 147.62 -7.49 147.62 -10.31 Z M 196.36 0 L 188.87 0 L 188.87 -30.8 Q 188.87 -33.68 189.92 -35.69 Q 190.97 -37.71 192.54 -38.95 Q 194.11 -40.19 195.96 -40.75 Q 197.8 -41.31 199.36 -41.31 L 199.36 -41.31 L 216.29 -41.31 Q 218.83 -41.31 220.85 -40.66 Q 222.86 -40.02 224.4 -38.93 Q 225.95 -37.85 227.03 -36.44 Q 228.11 -35.03 228.81 -33.49 Q 229.52 -31.95 229.83 -30.38 Q 230.15 -28.81 230.15 -27.43 L 230.15 -27.43 L 230.15 -24.03 Q 230.15 -21.46 229.52 -19.45 Q 228.88 -17.43 227.8 -15.89 Q 226.72 -14.35 225.31 -13.25 Q 223.9 -12.16 222.36 -11.47 Q 220.82 -10.77 219.25 -10.46 Q 217.68 -10.14 216.29 -10.14 L 216.29 -10.14 L 199.36 -10.14 L 199.36 -17.63 L 216.29 -17.63 Q 217.74 -17.75 218.9 -18.22 Q 220.07 -18.7 220.9 -19.5 Q 221.74 -20.31 222.2 -21.45 Q 222.66 -22.59 222.66 -24.03 L 222.66 -24.03 L 222.66 -27.43 Q 222.52 -28.84 222.06 -30.02 Q 221.6 -31.2 220.8 -32.04 Q 220.01 -32.87 218.89 -33.35 Q 217.76 -33.82 216.29 -33.82 L 216.29 -33.82 L 199.41 -33.82 Q 197.92 -33.82 197.14 -33.04 Q 196.36 -32.27 196.36 -30.8 L 196.36 -30.8 L 196.36 0 Z M 235.54 -10.52 L 235.54 -10.52 L 235.54 -44.31 L 243.03 -44.31 L 243.03 -10.52 Q 243.03 -9.13 243.89 -8.31 Q 244.76 -7.49 246.05 -7.49 L 246.05 -7.49 L 249.4 -7.49 L 249.4 0 L 246.05 0 Q 244.44 0 242.61 -0.55 Q 240.78 -1.09 239.2 -2.35 Q 237.61 -3.6 236.58 -5.6 Q 235.54 -7.61 235.54 -10.52 Z M 252.22 -10.31 L 252.22 -10.31 Q 252.22 -11.87 252.77 -13.68 Q 253.31 -15.5 254.54 -17.04 Q 255.76 -18.58 257.74 -19.62 Q 259.71 -20.66 262.53 -20.66 L 262.53 -20.66 L 276.04 -20.66 L 276.04 -13.51 L 262.53 -13.51 Q 261.01 -13.51 260.17 -12.57 Q 259.33 -11.64 259.33 -10.26 L 259.33 -10.26 Q 259.33 -8.79 260.3 -7.97 Q 261.27 -7.14 262.59 -7.14 L 262.59 -7.14 L 276.04 -7.14 Q 277.57 -7.14 278.41 -8.07 Q 279.24 -8.99 279.24 -10.37 L 279.24 -10.37 L 279.24 -20.83 Q 279.24 -22.3 278.33 -23.16 Q 277.43 -24.03 276.04 -24.03 L 276.04 -24.03 L 259.59 -24.03 L 259.59 -31.14 L 276.04 -31.14 Q 277.6 -31.14 279.4 -30.59 Q 281.2 -30.05 282.74 -28.82 Q 284.28 -27.6 285.32 -25.63 Q 286.36 -23.65 286.36 -20.83 L 286.36 -20.83 L 286.36 -10.31 Q 286.36 -8.76 285.81 -6.96 Q 285.26 -5.16 284.04 -3.62 Q 282.81 -2.07 280.84 -1.04 Q 278.87 0 276.04 0 L 276.04 0 L 262.53 0 Q 260.98 0 259.18 -0.55 Q 257.38 -1.09 255.83 -2.32 Q 254.29 -3.54 253.26 -5.52 Q 252.22 -7.49 252.22 -10.31 Z M 292.58 -10.52 L 292.58 -10.52 L 292.58 -31.14 L 300.07 -31.14 L 300.07 -10.52 Q 300.07 -9.05 300.85 -8.27 Q 301.63 -7.49 303.15 -7.49 L 303.15 -7.49 L 316.61 -7.49 L 316.61 0 L 303.1 0 Q 301.48 0 299.65 -0.55 Q 297.82 -1.09 296.24 -2.35 Q 294.65 -3.6 293.62 -5.6 Q 292.58 -7.61 292.58 -10.52 Z M 303.1 13.51 L 303.1 6.02 L 316.61 6.02 Q 318.1 6.02 318.85 5.24 Q 319.6 4.47 319.6 3 L 319.6 3 L 319.6 -31.14 L 327.09 -31.14 L 327.09 3 Q 327.09 4.93 326.6 6.47 Q 326.11 8.01 325.31 9.18 Q 324.5 10.34 323.43 11.16 Q 322.37 11.98 321.2 12.5 Q 320.03 13.02 318.85 13.27 Q 317.67 13.51 316.61 13.51 L 316.61 13.51 L 303.1 13.51 Z" stroke-linecap="round" />
</g>
<g transform="matrix(0.5752190757878994 0 0 0.5752190757878994 274.4677798334081 512.1966205837173)" id="logo-logo"  >
<g style=""  paint-order="stroke"   >
		<g transform="matrix(0.29725957967869276 0 0 -0.29725957967869276 0 0)"  >
<linearGradient id="SVGID_712888" gradientUnits="userSpaceOnUse" gradientTransform="matrix(1 0 0 1 1249.3750124496037 840.0403061789382)"  x1="0" y1="0" x2="0" y2="920">
<stop offset="0%" style="stop-color:rgb(113,23,234);stop-opacity: 1"/>
<stop offset="100%" style="stop-color:rgb(234,96,96);stop-opacity: 1"/>
</linearGradient>
<path style="stroke: none; stroke-width: 1; stroke-dasharray: none; stroke-linecap: butt; stroke-dashoffset: 0; stroke-linejoin: miter; stroke-miterlimit: 4; fill: url(#SVGID_712888); fill-rule: nonzero; opacity: 1;"  paint-order="stroke"  transform=" translate(-1625.002506224802, -1300.0001530894692)" d="m 1724.1 1759.96 c -152.73 0 -276.54 -123.81 -276.54 -276.53 v -281.27 c 0.48 -99.44 -20.83 -110.8 -97.54 -142.05 c -127.85 -62.508 -122.16 -164.786 -48.3 -207.403 c 116.49 -58.242 236.76 98.016 236.76 191.303 v 439.42 c 0 102.35 83.27 185.62 185.61 185.62 c 102.36 0 185.62 -83.27 185.62 -185.62 v -121.22 c 0.47 -99.44 -20.83 -110.8 -97.54 -142.06 c -127.85 -62.5 -122.17 -164.78 -48.3 -207.4 c 115.71 -57.852 235.1 95.93 236.68 189.41 h 0.08 v 281.27 c 0 152.72 -123.81 276.53 -276.53 276.53" stroke-linecap="round" />
</g>
		<g transform="matrix(0.29725957967869276 0 0 -0.29725957967869276 32.56623982588491 -34.71095561176969)"  >
<linearGradient id="SVGID_712889" gradientUnits="userSpaceOnUse" gradientTransform="matrix(1 0 0 1 1669.73 1322.4)"  x1="0" y1="0" x2="0" y2="189">
<stop offset="0%" style="stop-color:rgb(113,23,234);stop-opacity: 1"/>
<stop offset="100%" style="stop-color:rgb(234,96,96);stop-opacity: 1"/>
</linearGradient>
<path style="stroke: none; stroke-width: 1; stroke-dasharray: none; stroke-linecap: butt; stroke-dashoffset: 0; stroke-linejoin: miter; stroke-miterlimit: 4; fill: url(#SVGID_712889); fill-rule: nonzero; opacity: 1;"  paint-order="stroke"  transform=" translate(-1737.915, -1416.77)" d="m 1780.12 1322.4 h -110.39 v 188.74 h 110.39 c 14.35 0 25.98 -11.63 25.98 -25.98 v -136.78 c 0 -14.35 -11.63 -25.98 -25.98 -25.98" stroke-linecap="round" />
</g>
</g>
</g>
</svg>